<?xml version="1.0" encoding="utf-8"?>
<!-- Generator: Adobe Illustrator 16.0.0, SVG Export Plug-In . SVG Version: 6.00 Build 0)  -->
<!DOCTYPE svg PUBLIC "-//W3C//DTD SVG 1.1//EN" "http://www.w3.org/Graphics/SVG/1.1/DTD/svg11.dtd">
<svg version="1.1" id="Vrstva_1" xmlns="http://www.w3.org/2000/svg" xmlns:xlink="http://www.w3.org/1999/xlink" x="0px" y="0px"
	 width="1000px" height="400px" viewBox="0 0 1000 400" enable-background="new 0 0 1000 400" xml:space="preserve">
<g>
	<path fill="#FFFFFF" d="M143.67,215.493c-9.598-4.373-15.042-7.457-15.766-10.313c-0.099-0.416-0.198-0.838-0.278-1.254
		c-0.069-0.362,0.853-0.437,2.756-0.198c4.65,0.575,9.301,1.145,13.961,1.715c1.904,0.233,2.895,0.59,2.964,1.066
		c0.06,0.471,0.139,0.946,0.218,1.418c0.437,2.493,3.58,4.928,9.162,7.704c5.583,2.757,12.474,5.335,20.595,7.298
		c7.932,1.914,14.308,2.499,19.275,1.358c4.958-1.12,7.278-3.837,6.981-7.773c-0.199-2.628-1.606-5.058-4.264-7.154
		c-2.658-2.098-6.079-3.946-10.213-5.513c-4.154-1.547-11.026-3.902-20.505-6.376c-9.449-2.4-16.767-3.902-22.042-4.998
		c-5.285-1.101-9.43-2.226-12.375-3.431c-2.955-1.21-3.917-2.588-2.796-4.482c1.755-2.92,7.863-6.063,17.6-10.313
		c9.777-4.209,21.309-8.765,34.486-12.667c13.941-4.125,24.313-5.646,31.66-3.668c7.348,1.943,10.491,7.025,9.38,14.224
		c-0.168,1.096-0.327,2.187-0.486,3.282c-0.129,0.873-1.15,1.413-3.054,1.616c-4.809,0.516-9.608,1.036-14.397,1.557
		c-1.923,0.208-2.806-0.08-2.667-0.843c0.178-1.001,0.376-2.003,0.575-3.009c0.833-4.1-0.863-7.025-5.117-8.369
		c-4.273-1.364-10.381-0.883-18.572,1.09c-7.427,1.785-13.951,4.14-19.563,6.708c-5.602,2.578-9.103,4.968-10.183,7.486
		c-0.654,1.507-0.06,2.672,1.725,3.619c1.795,0.952,4.75,1.81,8.875,2.667c4.135,0.863,10.313,2.063,18.701,4.076
		c11.195,2.608,19.732,5.503,25.364,7.828c5.642,2.34,10.024,5.082,13.148,8.096c3.113,2.999,4.729,6.639,4.918,10.654
		c0.337,7.208-3.619,12.206-11.889,13.98c-8.279,1.814-19.087,0.169-32.939-3.916C165.067,224.575,153.288,219.816,143.67,215.493z"
		/>
	<path fill="#FFFFFF" d="M257.312,248.313c-2.291-35.16-0.913-70.599,4.125-106.295c0.149-1.056,1.141-1.819,2.975-2.32
		c4.69-1.264,9.38-2.524,14.07-3.778c1.844-0.491,2.717-0.174,2.618,0.986c-3.44,39.107-4.69,77.981-3.748,116.622
		c0.02,1.149-0.902,1.457-2.776,0.951c-4.789-1.269-9.568-2.558-14.348-3.847C258.353,250.118,257.381,249.364,257.312,248.313z"/>
	<path fill="#FFFFFF" d="M408.583,102.892c4.789-1.15,9.578-2.3,14.377-3.436c1.844-0.441,2.945,0.248,3.312,2.107
		c12.315,62.681,11.988,125.362-0.991,188.038c-0.387,1.864-1.517,2.538-3.401,2.103c-4.789-1.15-9.578-2.291-14.368-3.451
		c-1.884-0.456-2.657-1.537-2.34-3.302c8.408-46.96,10.471-93.939,6.197-140.944c-0.05-0.525-0.228-0.769-0.525-0.729
		c-0.298,0.035-0.625,0.248-0.992,0.634c-8.547,20.183-18.76,38.938-29.598,56.207c-0.634,1.115-1.656,1.66-3.063,1.636
		c-1.626-0.029-2.717-0.614-3.302-1.72c-10.183-17.174-20.912-32.875-31.333-47.074c-0.396-0.243-0.744-0.333-1.041-0.293
		c-0.288,0.04-0.437,0.258-0.426,0.704c0.654,38.537-0.536,76.984-3.57,115.348c-0.119,1.447-1.11,1.924-2.984,1.438
		c-4.79-1.22-9.569-2.449-14.358-3.688c-1.884-0.486-2.786-1.388-2.727-2.727c2.122-45.453,3.123-91.06,3.004-136.834
		c-0.01-1.349,0.912-2.256,2.756-2.732c4.789-1.234,9.568-2.459,14.358-3.684c1.656-0.421,2.776-0.208,3.391,0.674
		c11.284,14.085,23.371,29.955,35.24,47.555c0.198,0.312,0.496,0.441,0.912,0.411c0.396-0.025,0.684-0.203,0.882-0.54
		c10.788-19.341,20.436-40.386,27.585-63.068C405.936,104.161,406.927,103.294,408.583,102.892z"/>
	<path fill="#FFFFFF" d="M476.624,291.337c-6.673-11.72-8.825-25.057-6.633-40.822c5.057-36.599,5.116-73.182,0.179-109.75
		c-2.142-15.761,0-29.067,6.534-40.733c6.524-11.621,16.162-19.469,30.271-22.696c14.26-3.262,27.883-0.461,40.972,9.162
		c13.019,9.583,22.875,24.263,27.03,43.256c9.568,43.965,9.836,87.981,0.803,132.045c-3.867,18.779-13.564,33.475-26.653,43.172
		c-13.157,9.737-27,12.553-41.536,9.222C493.183,310.91,483.297,302.987,476.624,291.337z M538.665,287.044
		c7.536-6.108,12.771-14.894,14.973-26.078c8.497-43.41,8.31-86.781-0.546-130.097c-2.32-11.368-7.674-20.262-15.189-26.395
		c-7.526-6.103-15.717-8.24-24.492-6.653c-8.606,1.557-14.615,6.167-18.562,13.475c-3.947,7.368-5.057,15.984-3.48,26.172
		c6.029,38.874,6.019,77.768-0.02,116.696c-1.566,10.015-0.387,18.542,3.649,25.919c4.036,7.357,10.153,12.008,18.909,13.594
		C522.82,295.293,531.109,293.171,538.665,287.044z"/>
	<path fill="#FFFFFF" d="M671.633,46.611c4.621-0.867,9.241-1.725,13.871-2.583c1.845-0.337,3.659,0.917,5.414,3.833
		c59.087,98.506,60.416,197.359,3.996,296.534c-1.676,2.945-3.48,4.205-5.354,3.857c-5.563-1.021-11.126-2.063-16.688-3.104
		c-1.517-0.297-1.894-1.606-1.239-3.986c21.08-76.736,3.5-148.257-33.763-214.25c-0.427-0.769-0.813-1.046-1.19-0.927
		c-0.376,0.208-0.475,0.674-0.268,1.458c16.986,67.248,10.006,134.663-21.04,202.257c-1.229,2.638-2.796,3.748-4.681,3.371
		c-4.799-0.972-9.607-1.943-14.406-2.915c-1.895-0.377-2.262-1.824-1.15-4.402c37.648-86.761,36.936-173.304-2.152-259.624
		c-1.16-2.553-0.822-3.991,1.031-4.368c5.354-1.091,10.719-2.167,16.073-3.238c1.468-0.292,3.005,0.541,4.591,2.509
		c51.373,64.417,86.662,134.415,87.247,209.669c-0.04,0.872,0.179,1.269,0.654,1.149c0.456-0.118,0.813-0.614,1.041-1.428
		c19.989-73.206,9.212-146.224-32.315-219.054C669.68,48.525,669.778,46.958,671.633,46.611z"/>
	<path fill="#FFFFFF" d="M807.753,363.75c12.514-20.743,21.953-41.348,28.468-61.783c0.307-0.665,0.357-1.16,0.219-1.537
		c-0.18-0.348-0.496-0.516-0.923-0.556c-19.117-1.705-38.165-3.471-57.124-5.274c-0.426-0.04-0.842,0.059-1.269,0.316
		c-0.456,0.308-0.794,0.754-1.041,1.389c-10.342,18.869-22.796,37.609-37.193,56.221c-1.943,2.717-3.896,3.927-5.771,3.59
		c-4.809-0.853-9.618-1.705-14.418-2.559c-0.951-0.178-1.378-0.753-1.299-1.735c0.08-0.981,0.664-2.19,1.775-3.668
		c75.447-99.542,97.4-203.69,37.005-311.988c-1.577-2.831-1.577-4.413,0.079-4.695c5.563-0.947,11.115-1.884,16.678-2.812
		c1.834-0.307,3.937,0.957,6.247,3.758c94.286,106.195,121.604,217.443,49.925,333.504c-0.258,0.337-0.506,0.664-0.764,1.001
		c-2.301,3.015-4.343,4.383-6.049,4.115c-4.908-0.783-9.816-1.557-14.725-2.35C805.879,368.41,805.959,366.765,807.753,363.75z
		 M791.115,267.946c17.015,1.15,34.1,2.261,51.264,3.352c0.645,0.039,1.189-0.595,1.586-1.884
		c10.906-64.308-6.475-127.093-46.692-188.316c-0.694-0.927-1.14-1.378-1.349-1.354c-0.208,0.02-0.178,0.516,0.119,1.482
		c23.768,62.879,20.208,124.505-5.375,184.796C790.332,267.252,790.471,267.906,791.115,267.946z"/>
</g>
</svg>
